<svg xmlns="http://www.w3.org/2000/svg" xmlns:xlink="http://www.w3.org/1999/xlink" viewBox="0 0 2631.2 738.45">
  <defs>
    <!-- Primary Gradient -->
    <linearGradient id="lindaGradient" x1="0%" y1="0%" x2="100%" y2="100%">
      <stop offset="0%" style="stop-color:#2E86AB;stop-opacity:1" />
      <stop offset="50%" style="stop-color:#00D4AA;stop-opacity:1" />
      <stop offset="100%" style="stop-color:#2E86AB;stop-opacity:1" />
    </linearGradient>
    
    <!-- Crystal Highlight Gradient -->
    <linearGradient id="crystalHighlight" x1="0%" y1="0%" x2="100%" y2="100%">
      <stop offset="0%" style="stop-color:#FFFFFF;stop-opacity:0.8" />
      <stop offset="100%" style="stop-color:#FFFFFF;stop-opacity:0.2" />
    </linearGradient>
    
    <!-- Glow Effect -->
    <filter id="glow" x="-50%" y="-50%" width="200%" height="200%">
      <feGaussianBlur in="SourceGraphic" stdDeviation="15" result="blur" />
      <feMerge>
        <feMergeNode in="blur"/>
        <feMergeNode in="SourceGraphic"/>
      </feMerge>
    </filter>

    <!-- Star Glow -->
    <filter id="starGlow" x="-50%" y="-50%" width="400%" height="400%">
      <feGaussianBlur in="SourceGraphic" stdDeviation="8" result="blur" />
      <feMerge>
        <feMergeNode in="blur"/>
        <feMergeNode in="SourceGraphic"/>
      </feMerge>
    </filter>
    
    <!-- Metallic Shine -->
    <linearGradient id="metallicShine" x1="0%" y1="0%" x2="100%" y2="100%">
      <stop offset="0%" style="stop-color:#E8E8E8;stop-opacity:0.9" />
      <stop offset="100%" style="stop-color:#FFFFFF;stop-opacity:0.1" />
    </linearGradient>

    <!-- Banner Background Gradient -->
    <linearGradient id="bannerGradient" x1="0%" y1="0%" x2="100%" y2="0%">
      <stop offset="0%" style="stop-color:#ffffff;stop-opacity:0" />
      <stop offset="50%" style="stop-color:#ffffff;stop-opacity:0" />
      <stop offset="100%" style="stop-color:#ffffff;stop-opacity:0" />
    </linearGradient>
  </defs>

  <!-- Banner Background -->
  <rect width="2631" height="768" fill="url(#bannerGradient)" />
  
   <!-- Main Logo Container -->
  <g transform="translate(630, 80) scale(1.2)">
    <!-- Background Circle -->
    <circle cx="250" cy="250" r="240" fill="url(#lindaGradient)" filter="url(#glow)" />
    
    <!-- Main Crystal L Structure -->
    <g transform="translate(250, 250)">
      <path d="M -200,200 L 150,200 L 150,-50 L 50,-50 L 50,-200 L -200,-200 Z" 
            fill="url(#lindaGradient)" stroke="#E8E8E8" stroke-width="8" />
      
      <path d="M -150,150 L 100,150 L 100,0 L 0,0 L 0,-150 L -150,-150 Z" 
            fill="url(#crystalHighlight)" fill-opacity="0.4" />
      
      <path d="M -100,100 L 50,100 L 50,-50 L -50,-50 L -50,-100 L -100,-100 Z" 
            fill="url(#metallicShine)" fill-opacity="0.3" />
      
      <!-- Crystal Edge Highlights -->
      <path d="M -200,200 L 150,200" stroke="#FFFFFF" stroke-width="4" stroke-opacity="0.8" />
      <path d="M 150,200 L 150,-50" stroke="#FFFFFF" stroke-width="4" stroke-opacity="0.8" />
      <path d="M 50,-50 L 50,-200" stroke="#FFFFFF" stroke-width="4" stroke-opacity="0.8" />
      <path d="M -200,-200 L 50,-200" stroke="#FFFFFF" stroke-width="4" stroke-opacity="0.8" />
      <path d="M -200,200 L -200,-200" stroke="#FFFFFF" stroke-width="4" stroke-opacity="0.8" />
      
      <!-- Diagonal Crystal Cut Lines -->
      <path d="M -200,200 L 50,-50" stroke="#FFFFFF" stroke-width="2" stroke-opacity="0.3" />
      <path d="M 150,200 L 50,-50" stroke="#FFFFFF" stroke-width="2" stroke-opacity="0.3" />
      <path d="M 150,-50 L -200,-200" stroke="#FFFFFF" stroke-width="2" stroke-opacity="0.3" />
      <path d="M 50,-200 L -200,-200" stroke="#FFFFFF" stroke-width="2" stroke-opacity="0.3" />
    </g>

    <!-- Outer Ring -->
    <circle cx="250" cy="250" r="240" fill="none" stroke="url(#metallicShine)" stroke-width="12" />
  </g>

  <!-- Banner Text -->
  <g transform="translate(1280, 450)">
    <!-- Main LINDA Text -->
    <text x="0" y="0" text-anchor="start" font-family="Arial, sans-serif" 
          font-size="210" font-weight="bold" letter-spacing="8" opacity="0.7"
          fill="#000000" filter="url(#glow)">
      LINDASCAN
    </text>
  </g>

  <!-- Subtle Shine Overlay -->
  <rect width="2631" height="768" fill="url(#crystalHighlight)" fill-opacity="0.05" />
</svg>